<?xml version="1.0" standalone="no"?>
<!DOCTYPE svg PUBLIC "-//W3C//DTD SVG 20010904//EN"
 "http://www.w3.org/TR/2001/REC-SVG-20010904/DTD/svg10.dtd">
<svg version="1.0" xmlns="http://www.w3.org/2000/svg"
 width="700.000000pt" height="700.000000pt" viewBox="0 0 700.000000 700.000000"
 preserveAspectRatio="xMidYMid meet">
<metadata>
Created by potrace 1.11, written by Peter Selinger 2001-2013
</metadata>
<g transform="translate(0.000000,700.000000) scale(0.100000,-0.100000)"
fill="#000000" stroke="none">
<path d="M2369 6389 c-79 -12 -125 -28 -185 -67 -114 -74 -160 -143 -229 -342
-26 -74 -65 -187 -86 -250 -64 -183 -77 -212 -125 -273 -74 -94 -192 -160
-311 -173 l-51 -5 0 373 c0 379 -2 400 -39 444 -43 51 -61 54 -376 54 -288 0
-295 0 -327 -22 -18 -13 -43 -36 -54 -51 -20 -28 -21 -40 -23 -405 -1 -207 -2
-380 -2 -384 -1 -5 -36 -8 -78 -8 -185 0 -329 -81 -422 -235 -66 -110 -61 44
-59 -2124 l3 -1966 24 -55 c58 -131 163 -229 292 -271 l74 -23 3105 0 c2946 0
3108 1 3165 18 33 10 72 26 86 37 15 10 31 19 36 19 18 0 111 95 142 145 18
28 41 79 51 114 20 62 20 103 20 1986 0 1237 -4 1941 -10 1976 -34 182 -192
339 -371 368 -30 5 -148 9 -262 9 -229 1 -292 9 -380 53 -63 32 -151 113 -186
170 -21 36 -58 132 -106 274 -117 350 -150 421 -225 488 -59 54 -108 83 -180
108 l-65 21 -1401 2 c-770 0 -1421 -2 -1445 -5z"/>
</g>
</svg>
